#!OML:ASF \\sashay\E\basketball\basketball\Project 1\Capture day 1\Session 1\Subject.ASF
:FULLY-SPECIFIED
:DEGREES
154
root 17.4249 13.3679 -0.669517 -174.271 -18.6953 -160.157
lowerback 32.1946 -0.985031 -0.250041
upperback 9.21998 -3.43627 7.68804
thorax -6.10228 -2.91018 9.58247
lowerneck -5.99295 -2.22791 -15.8931
upperneck -16.212 2.85552 25.2794
head -3.96461 2.5127 11.081
rclavicle 5.88403e-014 -3.81667e-014
rhumerus -53.2891 -33.1475 -36.9001
rradius 45.0535
rwrist -7.80062
rhand -43.3499 65.4903
rfingers 7.12502
rthumb -16.1953 36.1468
lclavicle 5.88403e-014 -3.81667e-014
lhumerus -4.14769 5.81453 51.6062
lradius 92.3701
lwrist 33.851
lhand -30.0987 13.9438
lfingers 7.12502
lthumb -3.4128 43.8962
rfemur -13.2107 -9.87367 2.1934
rtibia 31.3011
rfoot 13.2283 -5.38064
rtoes -43.7411
lfemur -60.1875 20.7105 -6.85844
ltibia 94.7237
lfoot -20.3833 -9.41113
ltoes -1.1608
155
root 17.211 13.4891 -0.677412 -173.927 -17.789 -160.374
lowerback 32.0015 -0.918924 -0.28238
upperback 9.25118 -3.38639 7.54836
thorax -6.00323 -2.88825 9.41717
lowerneck -4.82782 -1.67846 -15.5792
upperneck -17.1522 3.52394 24.3738
head -4.61114 2.74818 10.6939
rclavicle 3.02153e-014 1.11319e-014
rhumerus -52.9295 -32.9765 -38.1376
rradius 44.9737
rwrist -7.91719
rhand -43.0524 65.5203
rfingers 7.12502
rthumb -15.9088 36.1537
lclavicle 3.02153e-014 1.11319e-014
lhumerus -4.82835 6.80065 52.1187
lradius 93.3406
lwrist 33.393
lhand -30.1564 13.8973
lfingers 7.12502
lthumb -3.46853 43.8488
rfemur -16.7072 -12.1288 3.06323
rtibia 36.242
rfoot 11.2653 -3.59258
rtoes -42.7831
lfemur -59.1406 20.3437 -7.80265
ltibia 93.716
lfoot -19.9388 -8.71585
ltoes 0.795873
156
root 17.0201 13.5231 -0.67187 -173.72 -16.9609 -160.753
lowerback 32.0168 -0.893405 -0.225208
upperback 9.37348 -3.4061 7.406
thorax -5.8782 -2.92063 9.22983
lowerneck -4.25024 -1.38674 -15.6396
upperneck -17.8644 3.934 23.8885
head -5.02374 2.92652 10.5385
rclavicle 3.81667e-014 1.74931e-014
rhumerus -52.1365 -32.6707 -39.6294
rradius 44.7518
rwrist -7.69864
rhand -43.3253 64.9713
rfingers 7.12502
rthumb -16.1716 35.6259
lclavicle 3.81667e-014 1.74931e-014
lhumerus -5.50379 7.90678 52.8342
lradius 94.3077
lwrist 32.9284
lhand -30.4948 13.8574
lfingers 7.12502
lthumb -3.79524 43.8033
rfemur -20.2552 -14.5494 3.85999
rtibia 41.5114
rfoot 9.59955 -3.69971
rtoes -41.7384
lfemur -58.8993 21.1444 -9.10377
ltibia 93.3369
lfoot -19.0643 -8.79727
ltoes 0.313801
157
root 16.8146 13.6163 -0.661305 -172.731 -16.098 -160.95
lowerback 31.0028 -0.779832 -0.140406
upperback 9.48923 -3.25945 7.38397
thorax -5.37566 -2.85575 9.04424
lowerneck -4.15103 -1.25804 -15.675
upperneck -18.4498 4.11088 23.2109
head -5.25984 3.03218 10.3047
rclavicle 1.43125e-014 -4.6118e-014
rhumerus -51.2022 -32.4384 -41.0811
rradius 44.4286
rwrist -7.57373
rhand -43.4182 64.3311
rfingers 7.12502
rthumb -16.2611 34.993
lclavicle 1.43125e-014 -4.6118e-014
lhumerus -6.04724 8.91325 53.8671
lradius 95.2565
lwrist 32.4337
lhand -30.6651 13.5622
lfingers 7.12502
lthumb -3.95977 43.5051
rfemur -24.7273 -16.7282 5.52783
rtibia 46.696
rfoot 8.23465 -5.77167
rtoes -41.3242
lfemur -59.2181 21.0538 -10.3335
ltibia 92.6959
lfoot -18.0995 -8.11338
ltoes 0.105338
158
root 16.5827 13.7195 -0.658503 -173.595 -15.314 -161.133
lowerback 32.4039 -0.708943 0.335741
upperback 9.78993 -3.2316 7.23289
thorax -5.61596 -2.92716 8.67447
lowerneck -4.33077 -1.12295 -15.5098
upperneck -18.8893 4.30069 22.441
head -5.40156 3.15912 9.99122
rclavicle 4.45278e-014 -7.15625e-014
rhumerus -50.1157 -32.2781 -42.7594
rradius 44.241
rwrist -7.5475
rhand -43.0519 64.4578
rfingers 7.12502
rthumb -15.9083 35.0912
lclavicle 4.45278e-014 -7.15625e-014
lhumerus -6.73087 9.98125 54.7514
lradius 96.1447
lwrist 31.7375
lhand -31.0632 13.5188
lfingers 7.12502
lthumb -4.34413 43.4543
rfemur -26.9369 -18.5766 6.71295
rtibia 51.6266
rfoot 6.44531 -8.08547
rtoes -41.7449
lfemur -57.1742 20.5112 -11.0682
ltibia 92.0173
lfoot -17.4513 -7.24466
ltoes -0.317197
159
root 16.3904 13.8023 -0.646524 -173.374 -14.4371 -161.002
lowerback 32.5764 -0.580396 0.661137
upperback 9.9563 -3.07168 7.20487
thorax -5.52804 -2.89098 8.41434
lowerneck -4.39838 -0.9589 -15.4846
upperneck -19.468 4.58053 21.8011
head -5.62607 3.34037 9.75814
rclavicle 2.54444e-014 4.13472e-014
rhumerus -48.9961 -32.3551 -44.4972
rradius 44.1014
rwrist -7.05068
rhand -43.0042 64.7298
rfingers 7.12502
rthumb -15.8625 35.3596
lclavicle 2.54444e-014 4.13472e-014
lhumerus -7.41725 11.0648 55.3613
lradius 96.98
lwrist 31.2292
lhand -31.8733 13.8918
lfingers 7.12502
lthumb -5.12639 43.8098
rfemur -30.6435 -20.2964 9.05615
rtibia 56.3867
rfoot 4.69958 -10.3277
rtoes -42.1036
lfemur -57.0073 21.0991 -11.7691
ltibia 91.5681
lfoot -15.9716 -7.07023
ltoes -0.968301
160
root 16.203 13.8709 -0.637777 -173.156 -13.6286 -160.857
lowerback 32.6534 -0.475249 1.08292
upperback 10.2453 -2.95857 7.14223
thorax -5.26298 -2.89272 8.06697
lowerneck -4.1615 -0.717798 -15.7797
upperneck -20.5504 5.0802 21.2602
head -6.11363 3.66086 9.63419
rclavicle 5.88403e-014 -5.08889e-014
rhumerus -47.4711 -32.403 -46.4726
rradius 43.8601
rwrist -6.60222
rhand -43.0705 64.5293
rfingers 7.12502
rthumb -15.9263 35.1642
lclavicle 5.88403e-014 -5.08889e-014
lhumerus -7.947 12.3438 55.8507
lradius 97.7932
lwrist 31.3271
lhand -32.4979 14.1558
lfingers 7.12502
lthumb -5.72944 44.0584
rfemur -34.3332 -21.8108 11.6494
rtibia 60.922
rfoot 2.63653 -12.3823
rtoes -40.7625
lfemur -57.0405 22.035 -12.5486
ltibia 91.2501
lfoot -14.3473 -6.96427
ltoes -2.26312
161
root 15.9967 13.9308 -0.640043 -173.073 -12.7794 -161.158
lowerback 32.9529 -0.44888 1.08463
upperback 10.6444 -3.12336 6.9005
thorax -4.92769 -3.04375 7.85253
lowerneck -5.27298 -0.557154 -15.0794
upperneck -20.5931 5.44796 20.5319
head -5.98618 3.92513 9.21818
rclavicle 1.59028e-014 3.18055e-015
rhumerus -45.3716 -32.0536 -48.9323
rradius 43.6986
rwrist -6.37838
rhand -43.0535 64.5658
rfingers 7.12502
rthumb -15.9099 35.1993
lclavicle 1.59028e-014 3.18055e-015
lhumerus -8.73238 13.881 56.2832
lradius 98.5892
lwrist 31.4835
lhand -32.8186 14.1635
lfingers 7.12502
lthumb -6.03906 44.0574
rfemur -37.6903 -23.2719 13.8083
rtibia 65.2501
rfoot 0.951653 -13.694
rtoes -39.9605
lfemur -56.7613 22.8791 -13.8591
ltibia 90.9785
lfoot -12.8475 -6.54812
ltoes -4.74917
162
root 15.7816 13.9955 -0.641182 -172.753 -12.0204 -161.811
lowerback 33.2595 -0.496944 0.803718
upperback 10.8645 -3.39162 6.57891
thorax -4.77666 -3.20963 7.75027
lowerneck -5.4214 -0.245034 -15.0212
upperneck -21.1454 5.99386 20.036
head -6.24014 4.24966 9.01976
rclavicle -4.77083e-015 9.54166e-015
rhumerus -43.356 -31.2872 -51.3078
rradius 43.6118
rwrist -6.30738
rhand -43.0172 65.0083
rfingers 7.12502
rthumb -15.875 35.6391
lclavicle -4.77083e-015 9.54166e-015
lhumerus -9.6806 15.2165 56.8882
lradius 99.24
lwrist 31.3384
lhand -33.0557 14.1006
lfingers 7.12502
lthumb -6.26799 43.9878
rfemur -41.1092 -24.6605 15.8012
rtibia 69.1539
rfoot -0.598082 -14.1924
rtoes -38.4355
lfemur -56.9035 23.5186 -15.5911
ltibia 90.7694
lfoot -10.7809 -6.53267
ltoes -5.58988
163
root 15.5713 14.064 -0.637434 -172.17 -11.3388 -162.636
lowerback 33.4492 -0.483993 0.659519
upperback 10.8772 -3.4406 6.17127
thorax -4.83866 -3.21853 7.41571
lowerneck -5.79437 -0.275682 -14.8488
upperneck -21.4508 6.09045 19.8189
head -6.28252 4.35211 8.91583
rclavicle 2.8625e-014 -8.90555e-014
rhumerus -42.0642 -30.7566 -53.1207
rradius 43.6441
rwrist -6.5255
rhand -42.7821 65.6067
rfingers 7.12502
rthumb -15.6485 36.2196
lclavicle 2.8625e-014 -8.90555e-014
lhumerus -10.2658 15.9542 58.0926
lradius 99.6671
lwrist 30.8786
lhand -33.5166 14.0264
lfingers 7.12502
lthumb -6.71292 43.9
rfemur -44.7418 -25.8565 17.8632
rtibia 72.6865
rfoot -2.24251 -13.7355
rtoes -36.6694
lfemur -57.6027 24.173 -17.435
ltibia 90.6856
lfoot -7.7855 -7.31405
ltoes -2.44565
164
root 15.356 14.1481 -0.63546 -171.589 -10.6692 -163.492
lowerback 33.6917 -0.409394 0.542182
upperback 10.8302 -3.38473 5.81778
thorax -4.99557 -3.17163 7.09804
lowerneck -5.9852 -0.240499 -14.7079
upperneck -21.8521 6.07925 18.9269
head -6.36418 4.39778 8.57219
rclavicle -6.04305e-014 5.40694e-014
rhumerus -41.0926 -30.6303 -54.5356
rradius 43.8803
rwrist -6.75891
rhand -42.6517 66.3207
rfingers 7.12502
rthumb -15.5229 36.9238
lclavicle -6.04305e-014 5.40694e-014
lhumerus -10.8897 16.5073 59.8343
lradius 100.166
lwrist 30.2877
lhand -34.1131 14.2094
lfingers 7.12502
lthumb -7.28878 44.0639
rfemur -48.1741 -26.9503 20.0602
rtibia 75.7006
rfoot -3.39381 -12.4335
rtoes -36.9759
lfemur -58.2839 24.8581 -19.2378
ltibia 90.546
lfoot -4.3448 -8.4706
ltoes 1.36026
